<?xml version="1.0" encoding="utf-8"?>
<!-- Generator: Adobe Illustrator 15.0.0, SVG Export Plug-In . SVG Version: 6.00 Build 0)  -->
<!DOCTYPE svg PUBLIC "-//W3C//DTD SVG 1.1//EN" "http://www.w3.org/Graphics/SVG/1.1/DTD/svg11.dtd">
<svg version="1.1" id="objects" xmlns="http://www.w3.org/2000/svg" xmlns:xlink="http://www.w3.org/1999/xlink" x="0px" y="0px"
	 width="599.5px" height="599.734px" viewBox="-379 473.483 599.5 599.734" enable-background="new -379 473.483 599.5 599.734"
	 xml:space="preserve">
<g>
	<path fill="#62D6BF" d="M-79.367,1073.218c165.242,0,299.867-134.625,299.867-299.867S85.875,473.483-79.367,473.483
		S-379,608.342-379,773.35C-379,938.593-244.376,1073.218-79.367,1073.218z"/>
	<g>
		<polygon fill="#FFFFFF" points="69.047,919.894 69.047,938.826 -234.559,938.826 -234.559,635.219 -215.628,635.219 
			-215.628,919.894 		"/>
		<polygon fill="#FFD52B" points="-98.766,740.629 -21.403,760.028 5.475,715.386 29.781,729.878 30.95,654.385 -35.193,691.08 
			-10.886,705.571 -30.285,738.292 -104.609,719.594 -184.308,799.294 -170.986,812.849 		"/>
		<polygon fill="#1E897D" points="-120.736,900.963 -82.873,900.963 -82.873,764.235 -92.923,761.664 -120.736,789.477 		"/>
		<polygon fill="#1E897D" points="-177.764,832.95 -177.764,900.963 -139.668,900.963 -139.668,808.409 -170.986,839.494 		"/>
		<polygon fill="#1E897D" points="-6.913,772.883 -6.913,900.963 30.95,900.963 30.95,752.783 12.019,741.33 		"/>
		<polygon fill="#1E897D" points="-25.844,900.963 -25.844,778.492 -63.708,768.91 -63.708,900.963 		"/>
	</g>
</g>
</svg>
