<?xml version="1.0" encoding="utf-8"?>
<!-- Generator: Adobe Illustrator 15.0.0, SVG Export Plug-In . SVG Version: 6.00 Build 0)  -->
<!DOCTYPE svg PUBLIC "-//W3C//DTD SVG 1.1//EN" "http://www.w3.org/Graphics/SVG/1.1/DTD/svg11.dtd">
<svg version="1.1" id="objects" xmlns="http://www.w3.org/2000/svg" xmlns:xlink="http://www.w3.org/1999/xlink" x="0px" y="0px"
	 width="599.5px" height="599.501px" viewBox="-378.5 474.2 599.5 599.501" enable-background="new -378.5 474.2 599.5 599.501"
	 xml:space="preserve">
<g>
	<circle fill="#FFC135" cx="-78.75" cy="773.95" r="299.75"/>
	<path fill="#F85E60" d="M-77.107,658.932c-69.245,0-125.346,56.101-125.346,125.347c0,69.245,56.101,125.346,125.346,125.346
		S48.239,853.524,48.239,784.279C48.474,715.033-7.862,658.932-77.107,658.932z M-77.107,885.447
		c-55.865,0-101.168-45.303-101.168-101.168c0-55.866,45.303-101.169,101.168-101.169c55.866,0,101.169,45.303,101.169,101.169
		C24.062,840.144-21.241,885.447-77.107,885.447z"/>
	<circle fill="#DDDDDD" cx="-77.107" cy="784.279" r="101.168"/>
	<circle fill="#FFFFFF" cx="-77.107" cy="784.279" r="91.31"/>
	<path fill="#DB3D2D" d="M-74.055,850.707l-0.47-64.081h-3.756l0.47,64.081c0,0.939,0.939,1.878,1.878,1.878
		C-74.994,852.585-74.055,851.646-74.055,850.707z"/>
	<path fill="#6DC6CC" d="M-20.067,753.763l-56.57,26.76l1.644,3.286l56.569-26.76c0.939-0.469,1.408-1.643,0.939-2.582
		C-17.955,753.763-19.129,753.294-20.067,753.763z"/>
	<path fill="#6DC6CC" d="M-77.342,777.706c1.643,1.644,1.643,4.226,0,5.634l0,0c-1.644,1.644-4.226,1.644-5.634,0l-42.485-42.251
		c-1.644-1.644-1.644-4.226,0-5.634l0,0c1.643-1.644,4.225-1.644,5.633,0L-77.342,777.706z"/>
	<circle fill="#6DC6CC" cx="-77.107" cy="783.809" r="6.573"/>
	<path fill="#D45500" d="M-137.432,642.267c-8.45-9.624-23.004-10.798-32.862-2.348l-19.482,16.9
		c-9.624,8.45-10.798,23.004-2.348,32.862l7.981,9.154l17.37-15.022l8.685,10.093l19.013-16.196l-8.685-10.093l18.309-15.962
		L-137.432,642.267z"/>
	<path fill="#D45500" d="M-19.833,642.267c7.512-10.329,22.064-12.676,32.393-5.164l20.891,15.022
		c10.328,7.511,12.676,22.064,5.164,32.393l-7.041,9.858l-18.779-13.38l-7.511,10.798l-20.187-14.553l7.746-10.798l-19.718-14.084
		L-19.833,642.267z"/>
	<path fill="#D45500" d="M-131.094,923.473c-3.521,6.807-11.972,9.154-18.778,5.634l0,0c-6.808-3.521-9.155-11.972-5.634-18.779
		l6.338-11.736c3.521-6.807,11.971-9.154,18.778-5.633l0,0c6.807,3.521,9.154,11.971,5.634,18.778L-131.094,923.473z"/>
	<path fill="#D45500" d="M-23.119,928.637c3.521,6.807,11.971,9.154,18.778,5.634l0,0c6.807-3.521,9.154-11.972,5.634-18.778
		l-6.338-11.737c-3.521-6.807-11.972-9.154-18.778-5.633l0,0c-6.808,3.521-9.154,11.971-5.634,18.778L-23.119,928.637z"/>
	<circle fill="#FC802D" cx="-20.067" cy="842.022" r="4.694"/>
	<circle fill="#FC802D" cx="-135.085" cy="727.005" r="4.694"/>
	<circle fill="#FC802D" cx="-135.085" cy="842.022" r="4.694"/>
	<circle fill="#FC802D" cx="-20.067" cy="727.005" r="4.694"/>
	<circle fill="#FC802D" cx="-158.793" cy="784.513" r="4.694"/>
	<circle fill="#FC802D" cx="3.64" cy="784.513" r="4.694"/>
	<circle fill="#FC802D" cx="-77.576" cy="703.297" r="4.694"/>
	<circle fill="#FC802D" cx="-77.576" cy="865.73" r="4.695"/>
</g>
</svg>
