<?xml version="1.0" encoding="utf-8"?>
<!-- Generator: Adobe Illustrator 15.0.0, SVG Export Plug-In . SVG Version: 6.00 Build 0)  -->
<!DOCTYPE svg PUBLIC "-//W3C//DTD SVG 1.1//EN" "http://www.w3.org/Graphics/SVG/1.1/DTD/svg11.dtd">
<svg version="1.1" id="objects" xmlns="http://www.w3.org/2000/svg" xmlns:xlink="http://www.w3.org/1999/xlink" x="0px" y="0px"
	 width="599.5px" height="599.5px" viewBox="-379 473.7 599.5 599.5" enable-background="new -379 473.7 599.5 599.5"
	 xml:space="preserve">
<g>
	<circle fill="#6DC6CC" cx="-79.25" cy="773.45" r="299.75"/>
	
		<rect x="-245.709" y="752.165" transform="matrix(1 -0.0053 0.0053 1 -4.4084 -0.4415)" fill="#FF6600" width="319.395" height="168.816"/>
	<polygon fill="#FB814C" points="-246.193,753.108 -86.031,836.58 -245.259,921.923 	"/>
	<polygon fill="#FB814C" points="73.197,751.471 -86.031,836.58 74.132,920.286 	"/>
	<polygon fill="#F2463D" points="-241.517,753.108 -82.523,645.788 77.64,751.471 	"/>
	<g>
		<g>
			<g>
				<defs>
					<rect id="SVGID_1_" x="-226.787" y="613.053" width="288.293" height="276.368"/>
				</defs>
				<clipPath id="SVGID_2_">
					<use xlink:href="#SVGID_1_"  overflow="visible"/>
				</clipPath>
				<g clip-path="url(#SVGID_2_)">
					<polygon fill="#EFEFEF" points="-212.758,768.072 -212.992,603.233 42.568,601.363 42.801,770.177 -81.588,836.58 					"/>
					<path fill="#CECECE" d="M7.729,749.601l-179.102,0.936c-3.04,0-5.846-2.572-5.846-5.612l0,0c0-3.039,2.572-5.845,5.611-5.845
						l179.103-0.936c3.039,0,5.845,2.572,5.845,5.611l0,0C13.34,747.029,10.769,749.601,7.729,749.601z"/>
					<path fill="#CECECE" d="M7.729,773.217l-179.102,0.936c-3.04,0-5.846-2.572-5.846-5.612l0,0c0-3.039,2.572-5.845,5.611-5.845
						L7.495,761.76c3.039,0,5.845,2.571,5.845,5.611l0,0C13.574,770.644,11.002,773.217,7.729,773.217z"/>
					<path fill="#CECECE" d="M7.729,701.903l-179.102,0.936c-3.04,0-5.846-2.572-5.846-5.612l0,0c0-3.039,2.572-5.845,5.611-5.845
						l179.103-0.936c3.039,0,5.845,2.572,5.845,5.611l0,0C13.34,699.097,10.769,701.903,7.729,701.903z"/>
					<path fill="#CECECE" d="M7.729,725.518l-179.102,0.936c-3.04,0-5.846-2.572-5.846-5.612l0,0c0-3.039,2.572-5.845,5.611-5.845
						l179.103-0.936c3.039,0,5.845,2.572,5.845,5.611l0,0C13.574,722.946,11.002,725.518,7.729,725.518z"/>
					<path fill="#CECECE" d="M7.729,653.971l-179.102,0.935c-3.04,0-5.846-2.571-5.846-5.611l0,0c0-3.039,2.572-5.846,5.611-5.846
						l179.103-0.935c3.039,0,5.845,2.571,5.845,5.611l0,0C13.34,651.399,10.769,653.971,7.729,653.971z"/>
					<path fill="#CECECE" d="M7.729,677.587l-179.102,0.935c-3.04,0-5.846-2.571-5.846-5.611l0,0c0-3.039,2.572-5.845,5.611-5.845
						L7.495,666.13c3.039,0,5.845,2.571,5.845,5.611l0,0C13.574,675.014,11.002,677.587,7.729,677.587z"/>
				</g>
			</g>
		</g>
	</g>
</g>
</svg>
